
<svg width="399px" height="95px" viewBox="0 0 399 95" version="1.1" xmlns="http://www.w3.org/2000/svg" xmlns:xlink="http://www.w3.org/1999/xlink">
    <!-- Generator: Sketch 45.2 (43514) - http://www.bohemiancoding.com/sketch -->
    <desc>Created with Sketch.</desc>
    <defs>
        <polygon id="path-1" points="0.06 30.167 0.06 0.134 24.0391944 0.134 24.0391944 30.167 0.06 30.167"></polygon>
        <polygon id="path-3" points="17.167 11.94 0.736 11.94 0.736 0.48 17.167 0.48"></polygon>
        <polygon id="path-5" points="0.479 15.94 18.16 15.94 18.16 0.064 0.479 0.064 0.479 15.94"></polygon>
    </defs>
    <g id="Page-1" stroke="none" stroke-width="1" fill="none" fill-rule="evenodd">
        <g id="FOLG_core_2c">
            <g id="Group-3" transform="translate(0.000000, 1.000000)">
                <mask id="mask-2" fill="white">
                    <use xlink:href="#path-1"></use>
                </mask>
                <g id="Clip-2"></g>
                <path d="M7.943,26.971 C7.943,27.44 8.037,27.676 8.131,27.77 C8.46,28.052 8.601,28.146 9.964,28.287 C10.34,28.334 12.925,28.757 12.925,29.556 C12.925,29.932 12.69,30.026 12.549,30.026 C12.126,30.026 10.105,29.744 7.285,29.744 C6.204,29.744 1.457,30.167 0.47,30.167 C0.376,30.167 0.188,30.12 0,30.12 L0.047,29.509 C0.423,29.321 2.35,28.992 2.726,28.897 C3.243,28.757 4.089,28.381 4.136,28.146 C4.324,27.159 4.324,25.561 4.324,24.527 C4.324,21.754 3.995,9.299 3.995,6.761 C3.995,5.304 3.995,3.188 3.948,2.954 C3.76,2.249 3.478,2.202 1.175,1.731 C0.752,1.638 0.094,1.45 0.094,1.027 C0.094,0.651 0.376,0.557 0.705,0.557 L7.802,0.557 C10.904,0.557 13.677,0.463 15.933,0.322 C18.236,0.228 19.975,0.134 20.962,0.134 C23.312,0.134 23.876,0.134 23.876,0.886 L23.876,1.826 C23.876,2.578 24.111,5.915 24.017,6.573 C23.876,6.62 23.641,6.714 23.359,6.714 C23.124,6.714 22.889,6.62 22.795,5.633 C22.748,5.116 22.231,3.188 21.949,2.766 C21.197,1.591 17.86,1.544 16.497,1.544 C15.745,1.544 12.596,1.685 11.985,1.685 C8.272,1.685 7.943,1.685 7.943,3.001 L7.943,12.166 C7.943,13.105 7.943,13.435 8.037,13.905 C8.93,13.999 16.027,13.905 17.484,13.67 C19.223,13.388 19.458,12.354 19.928,9.063 C20.21,8.876 20.398,8.923 20.727,9.017 C20.868,10.004 21.056,17.477 21.103,19.075 C20.633,19.263 20.539,19.263 20.257,19.216 C19.928,17.101 19.223,15.174 18.471,15.033 C17.672,14.938 16.732,14.938 13.254,14.938 L9.024,14.986 C8.225,14.986 7.943,15.08 7.943,15.597 L7.943,26.971" id="Fill-1" fill="#AB3225" mask="url(#mask-2)"></path>
            </g>
            <path d="M42.061,21.767 C42.061,19.558 41.121,12.931 35.387,12.931 C28.571,12.931 28.571,20.451 28.571,22.096 C28.571,28.44 31.956,30.556 35.151,30.556 C39.24,30.556 42.061,27.172 42.061,21.767 Z M35.574,12.038 C42.202,12.038 45.632,17.349 45.632,22.049 C45.632,25.855 42.342,31.449 34.963,31.449 C29.276,31.449 24.999,27.078 24.999,21.626 C24.999,19.793 26.222,12.038 35.574,12.038 L35.574,12.038 Z" id="Fill-4" fill="#AB3225"></path>
            <path d="M51.46,4.94 C51.46,3.907 51.225,3.672 50.661,3.343 C50.332,3.155 48.781,2.497 48.452,2.355 L48.452,1.839 L53.293,0.288 L54.327,0.288 C54.468,4.471 54.186,22.613 54.186,26.42 C54.186,29.428 54.186,29.663 56.019,29.851 C56.818,29.945 57.946,30.086 57.946,30.509 C57.946,30.932 57.758,30.979 57.476,30.979 C57.194,30.979 56.442,30.932 55.549,30.885 C54.703,30.885 53.763,30.838 53.011,30.838 C52.353,30.838 51.366,30.885 50.426,30.885 C49.486,30.932 48.64,30.979 48.17,30.979 C47.841,30.979 47.512,30.885 47.512,30.509 C47.512,30.133 47.606,30.086 48.452,29.945 C50.896,29.569 51.178,29.521 51.272,28.723 C51.413,27.83 51.413,25.01 51.413,23.976 L51.46,4.94" id="Fill-5" fill="#AB3225"></path>
            <path d="M67.863,25.433 C71.153,25.433 72.469,22.472 72.469,19.276 C72.469,16.221 71.153,12.837 67.816,12.837 C63.351,12.837 63.351,17.443 63.351,19.276 C63.351,24.07 66.03,25.433 67.863,25.433 Z M67.91,42.118 C72.375,42.118 76.793,40.003 76.793,36.807 C76.793,36.102 76.464,34.222 73.973,33.47 C72.375,32.953 67.111,32.765 66.923,32.765 C64.15,32.765 61.048,34.691 61.048,37.512 C61.048,38.546 61.518,39.533 62.599,40.52 C64.573,42.023 67.299,42.118 67.91,42.118 Z M59.873,28.723 C59.873,27.971 60.249,27.36 62.035,26.796 C63.68,26.231 64.103,26.044 64.62,25.762 C64.338,25.574 63.022,24.774 62.787,24.54 C61.518,23.365 60.296,21.908 60.296,19.323 C60.296,15.516 63.163,12.038 68.004,12.038 C69.226,12.038 71.012,12.32 72.234,13.119 C74.02,14.247 74.208,14.388 74.913,14.388 C75.524,14.388 78.062,13.965 78.579,13.965 C79.143,13.965 79.237,14.059 79.472,14.153 C79.66,14.481 79.754,14.764 79.754,15.704 C79.754,16.174 79.519,16.456 79.002,16.456 C78.297,16.456 75.242,15.61 74.631,15.704 C75.007,16.456 75.618,17.678 75.618,19.276 C75.618,22.613 72.516,26.231 68.098,26.231 C63.069,26.231 62.552,28.253 62.552,28.253 C62.552,30.273 70.871,30.556 72.469,30.603 C74.49,30.697 78.72,31.496 78.72,35.961 C78.72,39.674 74.678,42.964 67.722,42.964 C60.484,42.964 58.369,39.768 58.369,38.029 C58.369,36.431 59.967,34.974 61.189,34.081 C61.659,33.752 63.868,32.577 64.291,32.342 C61.8,31.214 59.873,30.321 59.873,28.723 L59.873,28.723 Z" id="Fill-6" fill="#AB3225"></path>
            <path d="M93.931,17.537 C94.448,17.49 94.777,16.973 94.777,16.644 C94.777,16.362 94.589,13.119 90.735,13.119 C86.599,13.119 85.189,16.832 85.189,17.913 C87.163,17.96 87.868,17.913 93.931,17.537 Z M88.808,18.853 C86.223,18.899 85.941,18.853 84.907,18.947 C84.766,19.37 84.672,19.652 84.672,19.887 C84.672,21.485 84.672,22.096 85.001,23.271 C85.612,25.386 87.257,29.099 92.192,29.099 C94.683,29.099 96.234,27.83 98.161,26.231 C98.302,27.078 98.302,27.125 98.255,27.501 C96.657,29.475 93.555,31.449 90.547,31.449 L89.889,31.449 C86.693,31.449 81.617,29.193 81.617,22.143 C81.617,19.417 83.356,12.038 90.876,12.038 C95.952,12.038 98.067,16.08 98.02,18.759 L88.808,18.853 L88.808,18.853 Z" id="Fill-7" fill="#AB3225"></path>
            <path d="M107.279,28.206 C107.279,29.146 107.419,29.24 107.89,29.569 C112.214,29.897 112.918,29.992 112.918,30.509 C112.918,30.603 112.872,30.697 112.73,30.885 L109.206,30.838 L107.843,30.885 L105.446,30.838 C104.646,30.838 101.263,30.979 100.37,31.026 C100.323,30.932 100.276,30.791 100.276,30.697 C100.276,30.556 100.417,30.273 100.464,30.227 C100.98,30.086 103.377,29.71 103.66,29.616 C104.177,29.475 104.177,29.24 104.177,27.501 C104.177,25.95 104.177,18.101 103.848,17.255 C103.66,16.832 103.237,16.644 102.767,16.597 C101.404,16.362 101.263,16.362 100.792,16.174 L100.887,15.516 C103.284,14.529 104.741,13.918 106.057,11.098 L106.855,11.098 C106.95,11.896 106.95,12.272 106.95,15.516 L106.997,16.174 L106.997,17.02 L107.091,17.02 C108.219,14.858 110.757,12.038 112.73,12.038 C114.423,12.038 115.034,13.495 115.034,14.388 C115.034,15.892 113.624,16.174 113.154,16.174 C112.684,16.174 110.663,15.422 110.24,15.422 C109.394,15.422 108.83,15.986 108.36,16.738 C107.843,17.537 107.091,18.759 107.091,19.84 C107.091,20.732 107.231,24.774 107.231,25.621 L107.279,28.206" id="Fill-8" fill="#AB3225"></path>
            <path d="M121.383,30.45 C120.84,30.179 120.801,30.023 120.801,28.976 C120.801,27.036 120.957,25.483 120.996,24.863 C121.034,24.436 121.112,24.242 121.306,24.242 C121.539,24.242 121.578,24.358 121.578,24.669 C121.578,25.019 121.578,25.561 121.694,26.104 C122.276,28.976 124.836,30.061 127.436,30.061 C131.161,30.061 132.984,27.385 132.984,24.901 C132.984,22.225 131.859,20.673 128.522,17.918 L126.776,16.482 C122.664,13.107 121.732,10.701 121.732,8.063 C121.732,3.912 124.836,1.079 129.764,1.079 C131.277,1.079 132.402,1.234 133.372,1.468 C134.109,1.623 134.42,1.661 134.73,1.661 C135.041,1.661 135.118,1.739 135.118,1.934 C135.118,2.127 134.963,3.407 134.963,6.046 C134.963,6.667 134.885,6.938 134.691,6.938 C134.458,6.938 134.42,6.744 134.381,6.434 C134.342,5.968 134.109,4.921 133.876,4.494 C133.644,4.067 132.596,2.438 129.027,2.438 C126.35,2.438 124.254,4.105 124.254,6.938 C124.254,9.149 125.341,10.469 128.988,13.456 L130.074,14.31 C134.652,17.918 135.739,20.323 135.739,23.428 C135.739,25.019 135.118,27.967 132.441,29.868 C130.772,31.032 128.678,31.497 126.583,31.497 C124.759,31.497 122.974,31.226 121.383,30.45" id="Fill-9" fill="#ffffff"></path>
            <path d="M168.252,19.703 C168.252,23.428 168.252,26.492 168.445,28.122 C168.563,29.247 168.795,30.101 169.959,30.256 C170.502,30.334 171.355,30.411 171.705,30.411 C171.938,30.411 172.015,30.527 172.015,30.644 C172.015,30.838 171.82,30.954 171.395,30.954 C169.26,30.954 166.816,30.838 166.622,30.838 C166.428,30.838 163.984,30.954 162.82,30.954 C162.393,30.954 162.199,30.877 162.199,30.644 C162.199,30.527 162.276,30.411 162.51,30.411 C162.858,30.411 163.324,30.334 163.674,30.256 C164.449,30.101 164.643,29.247 164.799,28.122 C164.992,26.492 164.992,23.428 164.992,19.703 L164.992,15.629 C164.992,15.474 164.876,15.396 164.76,15.396 L148.309,15.396 C148.193,15.396 148.076,15.435 148.076,15.629 L148.076,19.703 C148.076,23.428 148.076,26.492 148.271,28.122 C148.387,29.247 148.62,30.101 149.783,30.256 C150.327,30.334 151.18,30.411 151.529,30.411 C151.762,30.411 151.84,30.527 151.84,30.644 C151.84,30.838 151.646,30.954 151.219,30.954 C149.085,30.954 146.641,30.838 146.447,30.838 C146.253,30.838 143.809,30.954 142.645,30.954 C142.218,30.954 142.024,30.877 142.024,30.644 C142.024,30.527 142.102,30.411 142.334,30.411 C142.683,30.411 143.149,30.334 143.498,30.256 C144.274,30.101 144.468,29.247 144.623,28.122 C144.817,26.492 144.817,23.428 144.817,19.703 L144.817,12.874 C144.817,6.821 144.817,5.735 144.74,4.494 C144.662,3.175 144.352,2.554 143.071,2.282 C142.761,2.205 142.102,2.166 141.752,2.166 C141.597,2.166 141.442,2.088 141.442,1.934 C141.442,1.7 141.636,1.623 142.063,1.623 C143.809,1.623 146.253,1.739 146.447,1.739 C146.641,1.739 149.085,1.623 150.249,1.623 C150.676,1.623 150.87,1.7 150.87,1.934 C150.87,2.088 150.714,2.166 150.56,2.166 C150.288,2.166 150.055,2.205 149.589,2.282 C148.542,2.477 148.231,3.136 148.154,4.494 C148.076,5.735 148.076,6.821 148.076,12.874 L148.076,13.689 C148.076,13.883 148.193,13.922 148.309,13.922 L164.76,13.922 C164.876,13.922 164.992,13.883 164.992,13.689 L164.992,12.874 C164.992,6.821 164.992,5.735 164.914,4.494 C164.838,3.175 164.527,2.554 163.246,2.282 C162.936,2.205 162.276,2.166 161.928,2.166 C161.772,2.166 161.617,2.088 161.617,1.934 C161.617,1.7 161.811,1.623 162.238,1.623 C163.984,1.623 166.428,1.739 166.622,1.739 C166.816,1.739 169.26,1.623 170.424,1.623 C170.852,1.623 171.045,1.7 171.045,1.934 C171.045,2.088 170.89,2.166 170.734,2.166 C170.463,2.166 170.23,2.205 169.765,2.282 C168.717,2.477 168.406,3.136 168.329,4.494 C168.252,5.735 168.252,6.821 168.252,12.874 L168.252,19.703" id="Fill-10" fill="#ffffff"></path>
            <path d="M192.073,18.112 C192.268,18.112 192.268,17.996 192.229,17.841 L188.543,7.365 C188.349,6.783 188.154,6.783 187.961,7.365 L184.547,17.841 C184.469,18.034 184.547,18.112 184.663,18.112 L192.073,18.112 Z M188.039,2.593 C188.504,1.313 188.659,1.079 188.893,1.079 C189.125,1.079 189.279,1.273 189.746,2.477 C190.328,3.95 196.419,19.975 198.785,25.872 C200.183,29.325 201.308,29.945 202.122,30.179 C202.704,30.372 203.286,30.411 203.674,30.411 C203.907,30.411 204.063,30.45 204.063,30.644 C204.063,30.877 203.713,30.954 203.286,30.954 C202.704,30.954 199.872,30.954 197.195,30.877 C196.458,30.838 196.031,30.838 196.031,30.605 C196.031,30.45 196.147,30.372 196.303,30.334 C196.535,30.256 196.769,29.906 196.535,29.286 L192.927,19.741 C192.85,19.586 192.771,19.509 192.578,19.509 L184.236,19.509 C184.042,19.509 183.926,19.625 183.848,19.819 L181.521,26.686 C181.172,27.656 180.977,28.588 180.977,29.286 C180.977,30.061 181.792,30.411 182.451,30.411 L182.84,30.411 C183.111,30.411 183.228,30.488 183.228,30.644 C183.228,30.877 182.994,30.954 182.646,30.954 C181.715,30.954 180.046,30.838 179.619,30.838 C179.192,30.838 177.059,30.954 175.234,30.954 C174.73,30.954 174.498,30.877 174.498,30.644 C174.498,30.488 174.652,30.411 174.848,30.411 C175.119,30.411 175.662,30.372 175.973,30.334 C177.757,30.101 178.533,28.626 179.231,26.686 L188.039,2.593 L188.039,2.593 Z" id="Fill-11" fill="#ffffff"></path>
            <path d="M209.223,12.874 C209.223,6.821 209.223,5.735 209.145,4.494 C209.067,3.175 208.757,2.554 207.477,2.282 C207.166,2.205 206.507,2.166 206.157,2.166 C206.002,2.166 205.847,2.088 205.847,1.934 C205.847,1.7 206.041,1.623 206.468,1.623 C208.214,1.623 210.503,1.739 210.735,1.739 C211.085,1.739 213.335,1.623 214.499,1.623 C214.926,1.623 215.12,1.7 215.12,1.934 C215.12,2.088 214.965,2.166 214.81,2.166 C214.538,2.166 214.305,2.205 213.84,2.282 C212.792,2.477 212.481,3.136 212.404,4.494 C212.326,5.735 212.326,6.821 212.326,12.874 L212.326,15.202 L212.481,15.202 C213.142,14.465 220.164,7.326 221.561,5.813 C222.646,4.688 223.655,3.679 223.655,3.02 C223.655,2.554 223.462,2.321 223.151,2.205 C222.957,2.127 222.802,2.05 222.802,1.895 C222.802,1.7 222.996,1.623 223.268,1.623 C224.044,1.623 225.246,1.739 226.178,1.739 C226.371,1.739 228.933,1.623 229.902,1.623 C230.329,1.623 230.484,1.7 230.484,1.895 C230.484,2.088 230.406,2.166 230.096,2.166 C229.514,2.166 228.699,2.36 227.923,2.709 C226.333,3.407 225.479,4.377 223.733,6.046 C222.763,6.977 216.013,13.572 215.197,14.543 C216.206,15.668 224.276,24.01 225.867,25.483 C229.126,28.51 229.785,29.131 231.647,29.906 C232.656,30.334 233.782,30.411 234.054,30.411 C234.325,30.411 234.558,30.488 234.558,30.644 C234.558,30.838 234.364,30.954 233.704,30.954 L231.726,30.954 C230.64,30.954 229.902,30.954 229.049,30.877 C226.992,30.683 226.022,29.829 224.354,28.51 C222.608,27.074 214.383,18.189 212.521,15.9 L212.326,15.9 L212.326,19.703 C212.326,23.428 212.326,26.492 212.521,28.122 C212.637,29.247 212.869,30.101 214.033,30.256 C214.577,30.334 215.197,30.411 215.547,30.411 C215.779,30.411 215.857,30.527 215.857,30.644 C215.857,30.838 215.663,30.954 215.236,30.954 C213.335,30.954 211.085,30.838 210.774,30.838 C210.464,30.838 208.214,30.954 207.05,30.954 C206.623,30.954 206.429,30.877 206.429,30.644 C206.429,30.527 206.507,30.411 206.739,30.411 C207.089,30.411 207.554,30.334 207.903,30.256 C208.68,30.101 208.873,29.247 209.028,28.122 C209.223,26.492 209.223,23.428 209.223,19.703 L209.223,12.874" id="Fill-12" fill="#ffffff"></path>
            <path d="M238.787,12.874 C238.787,6.821 238.787,5.735 238.709,4.494 C238.632,3.175 238.321,2.554 237.041,2.282 C236.73,2.205 236.071,2.166 235.722,2.166 C235.566,2.166 235.411,2.088 235.411,1.934 C235.411,1.7 235.605,1.623 236.032,1.623 C237.778,1.623 240.223,1.739 240.416,1.739 C240.688,1.739 248.409,1.739 249.302,1.7 C250.038,1.661 250.659,1.584 250.97,1.507 C251.164,1.468 251.318,1.313 251.513,1.313 C251.629,1.313 251.668,1.468 251.668,1.661 C251.668,1.934 251.474,2.398 251.357,3.485 C251.318,3.873 251.241,5.58 251.164,6.046 C251.125,6.239 251.047,6.473 250.892,6.473 C250.659,6.473 250.582,6.278 250.582,5.968 C250.582,5.696 250.543,5.037 250.349,4.571 C250.077,3.95 249.689,3.485 247.594,3.252 C246.935,3.175 242.706,3.136 242.278,3.136 C242.124,3.136 242.046,3.252 242.046,3.523 L242.046,14.232 C242.046,14.504 242.085,14.62 242.278,14.62 C242.783,14.62 247.556,14.62 248.447,14.543 C249.379,14.465 249.922,14.388 250.271,13.999 C250.543,13.689 250.698,13.495 250.854,13.495 C250.97,13.495 251.047,13.572 251.047,13.806 C251.047,14.038 250.854,14.698 250.737,15.979 C250.659,16.754 250.582,18.189 250.582,18.461 C250.582,18.771 250.582,19.198 250.31,19.198 C250.116,19.198 250.038,19.043 250.038,18.85 C250.038,18.461 250.038,18.073 249.883,17.569 C249.729,17.025 249.379,16.366 247.866,16.211 C246.818,16.095 242.978,16.017 242.317,16.017 C242.124,16.017 242.046,16.134 242.046,16.288 L242.046,19.703 C242.046,21.021 242.007,25.522 242.046,26.337 C242.162,29.015 242.744,29.519 246.547,29.519 C247.556,29.519 249.263,29.519 250.271,29.092 C251.28,28.665 251.745,27.89 252.018,26.299 C252.095,25.872 252.173,25.717 252.366,25.717 C252.6,25.717 252.6,26.027 252.6,26.299 C252.6,26.608 252.289,29.247 252.095,30.061 C251.823,31.07 251.513,31.07 250,31.07 C244.142,31.07 241.542,30.838 240.416,30.838 C240.223,30.838 237.778,30.954 236.614,30.954 C236.188,30.954 235.993,30.877 235.993,30.644 C235.993,30.527 236.071,30.411 236.304,30.411 C236.653,30.411 237.118,30.334 237.468,30.256 C238.244,30.101 238.438,29.247 238.593,28.122 C238.787,26.492 238.787,23.428 238.787,19.703 L238.787,12.874" id="Fill-13" fill="#ffffff"></path>
            <path d="M259.583,30.45 C259.04,30.179 259.001,30.023 259.001,28.976 C259.001,27.036 259.156,25.483 259.195,24.863 C259.234,24.436 259.312,24.242 259.506,24.242 C259.738,24.242 259.777,24.358 259.777,24.669 C259.777,25.019 259.777,25.561 259.894,26.104 C260.476,28.976 263.036,30.061 265.636,30.061 C269.36,30.061 271.184,27.385 271.184,24.901 C271.184,22.225 270.059,20.673 266.722,17.918 L264.977,16.482 C260.863,13.107 259.933,10.701 259.933,8.063 C259.933,3.912 263.036,1.079 267.964,1.079 C269.477,1.079 270.602,1.234 271.572,1.468 C272.309,1.623 272.619,1.661 272.93,1.661 C273.24,1.661 273.317,1.739 273.317,1.934 C273.317,2.127 273.162,3.407 273.162,6.046 C273.162,6.667 273.085,6.938 272.891,6.938 C272.658,6.938 272.619,6.744 272.581,6.434 C272.542,5.968 272.309,4.921 272.076,4.494 C271.844,4.067 270.796,2.438 267.227,2.438 C264.55,2.438 262.454,4.105 262.454,6.938 C262.454,9.149 263.541,10.469 267.188,13.456 L268.274,14.31 C272.853,17.918 273.938,20.323 273.938,23.428 C273.938,25.019 273.317,27.967 270.641,29.868 C268.973,31.032 266.877,31.497 264.782,31.497 C262.959,31.497 261.174,31.226 259.583,30.45" id="Fill-14" fill="#ffffff"></path>
            <path d="M282.242,12.874 C282.242,6.821 282.242,5.735 282.164,4.494 C282.087,3.175 281.776,2.554 280.496,2.282 C280.186,2.205 279.526,2.166 279.177,2.166 C279.021,2.166 278.866,2.088 278.866,1.934 C278.866,1.7 279.061,1.623 279.487,1.623 C281.233,1.623 283.562,1.739 283.872,1.739 C284.726,1.739 286.976,1.623 288.76,1.623 C293.61,1.623 295.355,3.252 295.977,3.834 C296.83,4.649 297.917,6.395 297.917,8.451 C297.917,13.961 293.882,17.686 288.372,17.686 C288.178,17.686 287.751,17.686 287.558,17.646 C287.363,17.646 287.131,17.569 287.131,17.375 C287.131,17.064 287.363,17.025 288.178,17.025 C291.941,17.025 294.891,14.271 294.891,10.701 C294.891,9.421 294.773,6.821 292.718,4.727 C290.661,2.632 288.295,2.787 287.402,2.787 C286.742,2.787 286.083,2.864 285.733,3.02 C285.501,3.097 285.424,3.369 285.424,3.757 L285.424,19.703 C285.424,23.428 285.424,26.492 285.617,28.122 C285.733,29.247 285.967,30.101 287.131,30.256 C287.674,30.334 288.527,30.411 288.877,30.411 C289.109,30.411 289.187,30.527 289.187,30.644 C289.187,30.838 288.993,30.954 288.566,30.954 C286.433,30.954 283.988,30.838 283.794,30.838 C283.678,30.838 281.233,30.954 280.069,30.954 C279.643,30.954 279.448,30.877 279.448,30.644 C279.448,30.527 279.526,30.411 279.759,30.411 C280.108,30.411 280.573,30.334 280.923,30.256 C281.699,30.101 281.893,29.247 282.048,28.122 C282.242,26.492 282.242,23.428 282.242,19.703 L282.242,12.874" id="Fill-15" fill="#ffffff"></path>
            <path d="M303.658,12.874 C303.658,6.821 303.658,5.735 303.58,4.494 C303.503,3.175 303.192,2.554 301.912,2.282 C301.602,2.205 300.942,2.166 300.593,2.166 C300.438,2.166 300.282,2.088 300.282,1.934 C300.282,1.7 300.477,1.623 300.903,1.623 C302.649,1.623 305.094,1.739 305.287,1.739 C305.56,1.739 313.28,1.739 314.173,1.7 C314.909,1.661 315.53,1.584 315.841,1.507 C316.035,1.468 316.189,1.313 316.384,1.313 C316.5,1.313 316.539,1.468 316.539,1.661 C316.539,1.934 316.345,2.398 316.229,3.485 C316.189,3.873 316.112,5.58 316.035,6.046 C315.996,6.239 315.918,6.473 315.763,6.473 C315.53,6.473 315.453,6.278 315.453,5.968 C315.453,5.696 315.414,5.037 315.22,4.571 C314.948,3.95 314.561,3.485 312.465,3.252 C311.806,3.175 307.577,3.136 307.149,3.136 C306.995,3.136 306.917,3.252 306.917,3.523 L306.917,14.232 C306.917,14.504 306.956,14.62 307.149,14.62 C307.654,14.62 312.427,14.62 313.318,14.543 C314.25,14.465 314.793,14.388 315.143,13.999 C315.414,13.689 315.569,13.495 315.725,13.495 C315.841,13.495 315.918,13.572 315.918,13.806 C315.918,14.038 315.725,14.698 315.608,15.979 C315.53,16.754 315.453,18.189 315.453,18.461 C315.453,18.771 315.453,19.198 315.181,19.198 C314.987,19.198 314.909,19.043 314.909,18.85 C314.909,18.461 314.909,18.073 314.754,17.569 C314.6,17.025 314.25,16.366 312.737,16.211 C311.689,16.095 307.849,16.017 307.188,16.017 C306.995,16.017 306.917,16.134 306.917,16.288 L306.917,19.703 C306.917,21.021 306.878,25.522 306.917,26.337 C307.033,29.015 307.615,29.519 311.418,29.519 C312.427,29.519 314.134,29.519 315.143,29.092 C316.151,28.665 316.616,27.89 316.889,26.299 C316.966,25.872 317.044,25.717 317.237,25.717 C317.471,25.717 317.471,26.027 317.471,26.299 C317.471,26.608 317.16,29.247 316.966,30.061 C316.694,31.07 316.384,31.07 314.871,31.07 C309.013,31.07 306.413,30.838 305.287,30.838 C305.094,30.838 302.649,30.954 301.485,30.954 C301.059,30.954 300.864,30.877 300.864,30.644 C300.864,30.527 300.942,30.411 301.175,30.411 C301.524,30.411 301.989,30.334 302.339,30.256 C303.115,30.101 303.309,29.247 303.464,28.122 C303.658,26.492 303.658,23.428 303.658,19.703 L303.658,12.874" id="Fill-16" fill="#ffffff"></path>
            <path d="M337.335,18.112 C337.528,18.112 337.528,17.996 337.49,17.841 L333.804,7.365 C333.61,6.783 333.416,6.783 333.222,7.365 L329.808,17.841 C329.73,18.034 329.808,18.112 329.924,18.112 L337.335,18.112 Z M333.3,2.593 C333.766,1.313 333.921,1.079 334.153,1.079 C334.386,1.079 334.541,1.273 335.007,2.477 C335.589,3.95 341.68,19.975 344.047,25.872 C345.443,29.325 346.568,29.945 347.384,30.179 C347.966,30.372 348.548,30.411 348.936,30.411 C349.168,30.411 349.323,30.45 349.323,30.644 C349.323,30.877 348.975,30.954 348.548,30.954 C347.966,30.954 345.133,30.954 342.456,30.877 C341.719,30.838 341.292,30.838 341.292,30.605 C341.292,30.45 341.408,30.372 341.563,30.334 C341.797,30.256 342.029,29.906 341.797,29.286 L338.188,19.741 C338.11,19.586 338.033,19.509 337.839,19.509 L329.497,19.509 C329.304,19.509 329.188,19.625 329.109,19.819 L326.781,26.686 C326.433,27.656 326.238,28.588 326.238,29.286 C326.238,30.061 327.053,30.411 327.713,30.411 L328.101,30.411 C328.372,30.411 328.488,30.488 328.488,30.644 C328.488,30.877 328.256,30.954 327.907,30.954 C326.976,30.954 325.308,30.838 324.881,30.838 C324.454,30.838 322.319,30.954 320.496,30.954 C319.992,30.954 319.759,30.877 319.759,30.644 C319.759,30.488 319.914,30.411 320.108,30.411 C320.38,30.411 320.923,30.372 321.233,30.334 C323.019,30.101 323.794,28.626 324.492,26.686 L333.3,2.593 L333.3,2.593 Z" id="Fill-17" fill="#ffffff"></path>
            <path d="M358.364,16.25 C358.364,16.443 358.442,16.599 358.636,16.715 C359.218,17.064 361.003,17.336 362.71,17.336 C363.641,17.336 364.728,17.22 365.62,16.599 C366.978,15.668 367.986,13.572 367.986,10.624 C367.986,5.774 365.426,2.864 361.274,2.864 C360.11,2.864 359.063,2.98 358.675,3.097 C358.48,3.175 358.364,3.33 358.364,3.563 L358.364,16.25 Z M355.261,12.874 C355.261,6.821 355.261,5.735 355.183,4.494 C355.105,3.175 354.795,2.554 353.515,2.282 C353.204,2.205 352.545,2.166 352.195,2.166 C352.04,2.166 351.885,2.088 351.885,1.934 C351.885,1.7 352.079,1.623 352.506,1.623 C354.252,1.623 356.696,1.739 356.891,1.739 C357.317,1.739 360.266,1.623 361.469,1.623 C363.913,1.623 366.512,1.855 368.568,3.33 C369.538,4.028 371.245,5.93 371.245,8.606 C371.245,11.478 370.043,14.349 366.551,17.569 C369.732,21.643 372.371,25.096 374.621,27.501 C376.716,29.713 378.385,30.14 379.354,30.295 C380.092,30.411 380.635,30.411 380.867,30.411 C381.062,30.411 381.217,30.527 381.217,30.644 C381.217,30.877 380.983,30.954 380.285,30.954 L377.531,30.954 C375.358,30.954 374.388,30.761 373.38,30.217 C371.711,29.325 370.354,27.424 368.142,24.514 C366.512,22.38 364.688,19.78 363.913,18.771 C363.758,18.616 363.641,18.539 363.408,18.539 L358.636,18.461 C358.442,18.461 358.364,18.577 358.364,18.771 L358.364,19.703 C358.364,23.428 358.364,26.492 358.559,28.122 C358.675,29.247 358.907,30.101 360.071,30.256 C360.615,30.334 361.469,30.411 361.817,30.411 C362.05,30.411 362.128,30.527 362.128,30.644 C362.128,30.838 361.934,30.954 361.507,30.954 C359.373,30.954 356.929,30.838 356.735,30.838 C356.696,30.838 354.252,30.954 353.088,30.954 C352.661,30.954 352.467,30.877 352.467,30.644 C352.467,30.527 352.545,30.411 352.777,30.411 C353.127,30.411 353.592,30.334 353.941,30.256 C354.718,30.101 354.911,29.247 355.066,28.122 C355.261,26.492 355.261,23.428 355.261,19.703 L355.261,12.874 L355.261,12.874 Z" id="Fill-18" fill="#ffffff"></path>
            <path d="M384.902,12.874 C384.902,6.821 384.902,5.735 384.824,4.494 C384.747,3.175 384.437,2.554 383.156,2.282 C382.846,2.205 382.187,2.166 381.837,2.166 C381.682,2.166 381.526,2.088 381.526,1.934 C381.526,1.7 381.721,1.623 382.147,1.623 C383.894,1.623 386.338,1.739 386.531,1.739 C386.804,1.739 394.524,1.739 395.417,1.7 C396.153,1.661 396.774,1.584 397.085,1.507 C397.279,1.468 397.434,1.313 397.628,1.313 C397.744,1.313 397.783,1.468 397.783,1.661 C397.783,1.934 397.589,2.398 397.473,3.485 C397.434,3.873 397.356,5.58 397.279,6.046 C397.24,6.239 397.162,6.473 397.007,6.473 C396.774,6.473 396.697,6.278 396.697,5.968 C396.697,5.696 396.658,5.037 396.464,4.571 C396.192,3.95 395.805,3.485 393.709,3.252 C393.05,3.175 388.821,3.136 388.394,3.136 C388.239,3.136 388.161,3.252 388.161,3.523 L388.161,14.232 C388.161,14.504 388.2,14.62 388.394,14.62 C388.898,14.62 393.671,14.62 394.563,14.543 C395.494,14.465 396.037,14.388 396.387,13.999 C396.658,13.689 396.813,13.495 396.969,13.495 C397.085,13.495 397.162,13.572 397.162,13.806 C397.162,14.038 396.969,14.698 396.853,15.979 C396.774,16.754 396.697,18.189 396.697,18.461 C396.697,18.771 396.697,19.198 396.425,19.198 C396.231,19.198 396.153,19.043 396.153,18.85 C396.153,18.461 396.153,18.073 395.998,17.569 C395.844,17.025 395.494,16.366 393.981,16.211 C392.934,16.095 389.093,16.017 388.433,16.017 C388.239,16.017 388.161,16.134 388.161,16.288 L388.161,19.703 C388.161,21.021 388.122,25.522 388.161,26.337 C388.277,29.015 388.859,29.519 392.662,29.519 C393.671,29.519 395.378,29.519 396.387,29.092 C397.396,28.665 397.86,27.89 398.133,26.299 C398.21,25.872 398.288,25.717 398.481,25.717 C398.715,25.717 398.715,26.027 398.715,26.299 C398.715,26.608 398.404,29.247 398.21,30.061 C397.938,31.07 397.628,31.07 396.115,31.07 C390.257,31.07 387.657,30.838 386.531,30.838 C386.338,30.838 383.894,30.954 382.729,30.954 C382.303,30.954 382.108,30.877 382.108,30.644 C382.108,30.527 382.187,30.411 382.419,30.411 C382.769,30.411 383.233,30.334 383.583,30.256 C384.359,30.101 384.553,29.247 384.708,28.122 C384.902,26.492 384.902,23.428 384.902,19.703 L384.902,12.874" id="Fill-19" fill="#ffffff"></path>
            <path d="M88.967,56.297 C88.967,62 89.123,64.483 89.821,65.182 C90.442,65.803 91.451,66.074 94.477,66.074 C96.533,66.074 98.24,66.035 99.171,64.91 C99.676,64.289 100.063,63.319 100.18,62.582 C100.219,62.271 100.296,62.078 100.529,62.078 C100.723,62.078 100.762,62.233 100.762,62.66 C100.762,63.087 100.491,65.415 100.18,66.54 C99.909,67.432 99.792,67.587 97.736,67.587 C92.149,67.587 89.588,67.355 87.338,67.355 C86.989,67.355 84.7,67.471 83.536,67.471 C83.109,67.471 82.915,67.394 82.915,67.16 C82.915,67.044 82.993,66.928 83.225,66.928 C83.574,66.928 84.04,66.851 84.389,66.772 C85.165,66.617 85.359,65.764 85.514,64.639 C85.709,63.009 85.709,59.944 85.709,56.22 L85.709,49.391 C85.709,43.338 85.709,42.252 85.631,41.011 C85.553,39.691 85.243,39.07 83.962,38.799 C83.652,38.722 82.993,38.683 82.643,38.683 C82.488,38.683 82.333,38.604 82.333,38.45 C82.333,38.217 82.527,38.14 82.954,38.14 C84.7,38.14 87.144,38.256 87.338,38.256 C87.532,38.256 90.364,38.14 91.528,38.14 C91.955,38.14 92.149,38.217 92.149,38.45 C92.149,38.604 91.994,38.683 91.838,38.683 C91.567,38.683 91.024,38.722 90.558,38.799 C89.433,38.993 89.123,39.652 89.045,41.011 C88.967,42.252 88.967,43.338 88.967,49.391 L88.967,56.297" id="Fill-20" fill="#ffffff"></path>
            <path d="M112.324,56.22 C112.324,59.944 112.324,63.009 112.518,64.639 C112.634,65.764 112.867,66.617 114.031,66.772 C114.574,66.851 115.428,66.928 115.777,66.928 C116.01,66.928 116.087,67.044 116.087,67.16 C116.087,67.355 115.893,67.471 115.467,67.471 C113.333,67.471 110.888,67.355 110.694,67.355 C110.5,67.355 108.056,67.471 106.892,67.471 C106.465,67.471 106.271,67.394 106.271,67.16 C106.271,67.044 106.349,66.928 106.582,66.928 C106.931,66.928 107.396,66.851 107.746,66.772 C108.521,66.617 108.716,65.764 108.871,64.639 C109.065,63.009 109.065,59.944 109.065,56.22 L109.065,49.391 C109.065,43.338 109.065,42.252 108.987,41.011 C108.91,39.691 108.521,39.031 107.668,38.838 C107.241,38.722 106.737,38.683 106.465,38.683 C106.31,38.683 106.155,38.604 106.155,38.45 C106.155,38.217 106.349,38.14 106.776,38.14 C108.056,38.14 110.5,38.256 110.694,38.256 C110.888,38.256 113.333,38.14 114.497,38.14 C114.923,38.14 115.117,38.217 115.117,38.45 C115.117,38.604 114.962,38.683 114.807,38.683 C114.535,38.683 114.303,38.722 113.837,38.799 C112.79,38.993 112.479,39.652 112.401,41.011 C112.324,42.252 112.324,43.338 112.324,49.391 L112.324,56.22" id="Fill-21" fill="#ffffff"></path>
            <path d="M128.075,54.357 C128.075,57.345 128.075,62.155 128.114,62.737 C128.23,64.639 128.23,65.182 129.433,65.764 C130.481,66.269 132.149,66.346 132.848,66.346 C134.943,66.346 138.318,65.221 138.318,60.836 C138.318,58.509 137.542,55.133 134.555,53.077 C133.235,52.185 132.266,52.068 131.334,51.951 C130.83,51.874 128.89,51.874 128.308,51.874 C128.153,51.874 128.075,51.951 128.075,52.146 L128.075,54.357 Z M128.075,50.244 C128.075,50.516 128.153,50.594 128.347,50.671 C128.58,50.71 129.278,50.826 130.714,50.826 C132.886,50.826 133.43,50.749 134.244,49.817 C135.059,48.887 135.641,47.489 135.641,45.899 C135.641,42.679 134.206,39.226 130.403,39.226 C129.977,39.226 129.162,39.265 128.541,39.42 C128.192,39.497 128.075,39.613 128.075,39.847 L128.075,50.244 Z M124.972,49.391 C124.972,43.338 124.972,42.252 124.894,41.011 C124.816,39.691 124.506,39.07 123.226,38.799 C122.915,38.722 122.256,38.683 121.906,38.683 C121.751,38.683 121.596,38.604 121.596,38.45 C121.596,38.217 121.79,38.14 122.217,38.14 C123.963,38.14 126.407,38.256 126.601,38.256 C127.532,38.256 129.045,38.14 130.83,38.14 C137.193,38.14 138.59,42.02 138.59,43.959 C138.59,47.141 136.766,49.042 134.943,50.942 C137.814,51.835 141.655,54.59 141.655,59.129 C141.655,63.28 138.396,67.587 131.761,67.587 C130.869,67.587 126.912,67.355 126.601,67.355 C126.407,67.355 123.963,67.471 122.799,67.471 C122.372,67.471 122.178,67.394 122.178,67.16 C122.178,67.044 122.256,66.928 122.488,66.928 C122.837,66.928 123.303,66.851 123.652,66.772 C124.428,66.617 124.623,65.764 124.777,64.639 C124.972,63.009 124.972,59.944 124.972,56.22 L124.972,49.391 L124.972,49.391 Z" id="Fill-22" fill="#ffffff"></path>
            <path d="M152.79,52.767 C152.79,52.96 152.867,53.115 153.062,53.232 C153.644,53.581 155.428,53.853 157.135,53.853 C158.066,53.853 159.153,53.736 160.045,53.115 C161.403,52.185 162.412,50.089 162.412,47.141 C162.412,42.291 159.851,39.381 155.7,39.381 C154.536,39.381 153.488,39.497 153.1,39.613 C152.906,39.691 152.79,39.847 152.79,40.079 L152.79,52.767 Z M149.686,49.391 C149.686,43.338 149.686,42.252 149.608,41.011 C149.531,39.691 149.22,39.07 147.94,38.799 C147.629,38.722 146.97,38.683 146.621,38.683 C146.466,38.683 146.311,38.604 146.311,38.45 C146.311,38.217 146.504,38.14 146.931,38.14 C148.677,38.14 151.122,38.256 151.315,38.256 C151.742,38.256 154.691,38.14 155.894,38.14 C158.338,38.14 160.938,38.372 162.994,39.847 C163.964,40.545 165.671,42.446 165.671,45.123 C165.671,47.994 164.469,50.865 160.976,54.085 C164.158,58.159 166.796,61.612 169.047,64.018 C171.142,66.23 172.81,66.656 173.779,66.811 C174.517,66.928 175.061,66.928 175.293,66.928 C175.486,66.928 175.643,67.044 175.643,67.16 C175.643,67.394 175.409,67.471 174.711,67.471 L171.956,67.471 C169.783,67.471 168.813,67.277 167.805,66.733 C166.137,65.842 164.778,63.94 162.566,61.03 C160.938,58.896 159.114,56.297 158.338,55.288 C158.183,55.133 158.066,55.056 157.833,55.056 L153.062,54.978 C152.867,54.978 152.79,55.094 152.79,55.288 L152.79,56.22 C152.79,59.944 152.79,63.009 152.984,64.639 C153.1,65.764 153.333,66.617 154.497,66.772 C155.04,66.851 155.894,66.928 156.243,66.928 C156.476,66.928 156.553,67.044 156.553,67.16 C156.553,67.355 156.359,67.471 155.933,67.471 C153.798,67.471 151.354,67.355 151.16,67.355 C151.122,67.355 148.677,67.471 147.513,67.471 C147.086,67.471 146.893,67.394 146.893,67.16 C146.893,67.044 146.97,66.928 147.203,66.928 C147.552,66.928 148.018,66.851 148.367,66.772 C149.143,66.617 149.337,65.764 149.492,64.639 C149.686,63.009 149.686,59.944 149.686,56.22 L149.686,49.391 L149.686,49.391 Z" id="Fill-23" fill="#ffffff"></path>
            <path d="M189.14,54.629 C189.334,54.629 189.334,54.513 189.295,54.357 L185.609,43.882 C185.414,43.3 185.221,43.3 185.027,43.882 L181.612,54.357 C181.535,54.551 181.612,54.629 181.729,54.629 L189.14,54.629 Z M185.104,39.109 C185.57,37.829 185.725,37.596 185.958,37.596 C186.191,37.596 186.346,37.79 186.812,38.993 C187.394,40.467 193.484,56.491 195.852,62.389 C197.248,65.842 198.373,66.462 199.188,66.695 C199.771,66.889 200.353,66.928 200.74,66.928 C200.973,66.928 201.128,66.967 201.128,67.16 C201.128,67.394 200.779,67.471 200.353,67.471 C199.771,67.471 196.938,67.471 194.261,67.394 C193.523,67.355 193.097,67.355 193.097,67.122 C193.097,66.967 193.213,66.889 193.368,66.851 C193.602,66.772 193.834,66.423 193.602,65.803 L189.993,56.258 C189.916,56.103 189.838,56.025 189.644,56.025 L181.303,56.025 C181.108,56.025 180.992,56.142 180.914,56.336 L178.586,63.203 C178.237,64.173 178.043,65.105 178.043,65.803 C178.043,66.578 178.857,66.928 179.518,66.928 L179.905,66.928 C180.177,66.928 180.293,67.005 180.293,67.16 C180.293,67.394 180.061,67.471 179.711,67.471 C178.78,67.471 177.111,67.355 176.686,67.355 C176.258,67.355 174.125,67.471 172.301,67.471 C171.797,67.471 171.564,67.394 171.564,67.16 C171.564,67.005 171.719,66.928 171.913,66.928 C172.185,66.928 172.728,66.889 173.038,66.851 C174.822,66.617 175.599,65.143 176.297,63.203 L185.104,39.109 L185.104,39.109 Z" id="Fill-24" fill="#ffffff"></path>
            <path d="M209.393,52.767 C209.393,52.96 209.471,53.115 209.664,53.232 C210.246,53.581 212.031,53.853 213.738,53.853 C214.669,53.853 215.756,53.736 216.648,53.115 C218.006,52.185 219.015,50.089 219.015,47.141 C219.015,42.291 216.454,39.381 212.303,39.381 C211.139,39.381 210.091,39.497 209.703,39.613 C209.509,39.691 209.393,39.847 209.393,40.079 L209.393,52.767 Z M206.289,49.391 C206.289,43.338 206.289,42.252 206.211,41.011 C206.134,39.691 205.823,39.07 204.543,38.799 C204.232,38.722 203.573,38.683 203.224,38.683 C203.068,38.683 202.913,38.604 202.913,38.45 C202.913,38.217 203.107,38.14 203.534,38.14 C205.28,38.14 207.725,38.256 207.919,38.256 C208.346,38.256 211.294,38.14 212.497,38.14 C214.941,38.14 217.54,38.372 219.597,39.847 C220.566,40.545 222.273,42.446 222.273,45.123 C222.273,47.994 221.071,50.865 217.579,54.085 C220.761,58.159 223.399,61.612 225.649,64.018 C227.744,66.23 229.413,66.656 230.383,66.811 C231.12,66.928 231.663,66.928 231.896,66.928 C232.09,66.928 232.245,67.044 232.245,67.16 C232.245,67.394 232.013,67.471 231.313,67.471 L228.56,67.471 C226.387,67.471 225.416,67.277 224.408,66.733 C222.739,65.842 221.382,63.94 219.17,61.03 C217.54,58.896 215.717,56.297 214.941,55.288 C214.786,55.133 214.669,55.056 214.437,55.056 L209.664,54.978 C209.471,54.978 209.393,55.094 209.393,55.288 L209.393,56.22 C209.393,59.944 209.393,63.009 209.587,64.639 C209.703,65.764 209.936,66.617 211.1,66.772 C211.644,66.851 212.497,66.928 212.846,66.928 C213.079,66.928 213.156,67.044 213.156,67.16 C213.156,67.355 212.962,67.471 212.535,67.471 C210.401,67.471 207.957,67.355 207.764,67.355 C207.725,67.355 205.28,67.471 204.116,67.471 C203.689,67.471 203.495,67.394 203.495,67.16 C203.495,67.044 203.573,66.928 203.806,66.928 C204.155,66.928 204.62,66.851 204.97,66.772 C205.746,66.617 205.939,65.764 206.095,64.639 C206.289,63.009 206.289,59.944 206.289,56.22 L206.289,49.391 L206.289,49.391 Z" id="Fill-25" fill="#ffffff"></path>
            <path d="M239.461,57.422 C239.461,55.327 239.073,54.474 238.568,53.349 C238.297,52.728 233.098,44.191 231.74,42.175 C230.77,40.739 229.8,39.769 229.102,39.304 C228.52,38.915 227.782,38.683 227.434,38.683 C227.239,38.683 227.045,38.604 227.045,38.411 C227.045,38.256 227.2,38.14 227.55,38.14 C228.287,38.14 231.196,38.256 231.391,38.256 C231.662,38.256 233.137,38.14 234.649,38.14 C235.076,38.14 235.154,38.256 235.154,38.411 C235.154,38.566 234.921,38.604 234.572,38.76 C234.262,38.915 234.067,39.149 234.067,39.458 C234.067,39.924 234.262,40.39 234.572,40.972 C235.193,42.097 241.013,52.107 241.711,53.232 C242.448,51.603 247.376,43.106 248.151,41.825 C248.656,41.011 248.812,40.351 248.812,39.847 C248.812,39.304 248.656,38.877 248.19,38.76 C247.841,38.644 247.608,38.566 247.608,38.372 C247.608,38.217 247.841,38.14 248.229,38.14 C249.238,38.14 250.479,38.256 250.79,38.256 C251.022,38.256 253.816,38.14 254.554,38.14 C254.825,38.14 255.058,38.217 255.058,38.372 C255.058,38.566 254.863,38.683 254.554,38.683 C254.127,38.683 253.39,38.838 252.769,39.226 C251.992,39.691 251.565,40.157 250.712,41.204 C249.432,42.757 244,51.874 243.302,53.542 C242.72,54.939 242.72,56.142 242.72,57.422 L242.72,60.759 C242.72,61.38 242.72,63.009 242.836,64.639 C242.914,65.764 243.263,66.617 244.427,66.772 C244.97,66.851 245.823,66.928 246.173,66.928 C246.405,66.928 246.483,67.044 246.483,67.16 C246.483,67.355 246.289,67.471 245.862,67.471 C243.729,67.471 241.284,67.355 241.091,67.355 C240.896,67.355 238.452,67.471 237.288,67.471 C236.861,67.471 236.667,67.394 236.667,67.16 C236.667,67.044 236.745,66.928 236.978,66.928 C237.327,66.928 237.792,66.851 238.142,66.772 C238.918,66.617 239.267,65.764 239.345,64.639 C239.461,63.009 239.461,61.38 239.461,60.759 L239.461,57.422" id="Fill-26" fill="#ffffff"></path>
            <path d="M88.808,81.561 L88.776,81.561 L86.424,87.128 L91.048,87.128 L88.808,81.561 Z M88.2,79.832 L89.464,79.832 L94.28,91.16 L92.712,91.16 L91.56,88.376 L85.897,88.376 L84.728,91.16 L83.209,91.16 L88.2,79.832 L88.2,79.832 Z" id="Fill-27" fill="#ffffff"></path>
            <path d="M99.128,84.632 C97.512,84.632 96.473,85.849 96.473,87.416 C96.473,88.984 97.512,90.2 99.128,90.2 C100.744,90.2 101.784,88.984 101.784,87.416 C101.784,85.849 100.744,84.632 99.128,84.632 Z M101.784,89.832 L101.752,89.832 C101.289,90.68 100.216,91.353 98.873,91.353 C96.776,91.353 95.128,89.656 95.128,87.416 C95.128,85.145 96.712,83.48 99.065,83.48 C100.152,83.48 101.064,83.96 101.752,84.76 L101.784,84.76 L101.784,79.064 L103.032,79.064 L103.032,91.16 L101.784,91.16 L101.784,89.832 L101.784,89.832 Z" id="Fill-28" fill="#ffffff"></path>
            <polyline id="Fill-29" fill="#ffffff" points="108.744 91.16 107.368 91.16 104.312 83.672 105.768 83.672 108.104 89.544 108.136 89.544 110.36 83.672 111.704 83.672 108.744 91.16"></polyline>
            <path d="M116.568,87.561 C114.984,87.561 113.96,87.992 113.96,89 C113.96,89.944 114.664,90.296 115.608,90.296 C117.048,90.296 117.784,89.256 117.816,88.04 L117.816,87.561 L116.568,87.561 Z M112.952,84.632 C113.72,83.849 114.84,83.48 115.928,83.48 C118.136,83.48 119.063,84.536 119.063,86.648 L119.063,89.864 C119.063,90.296 119.112,90.776 119.176,91.16 L117.976,91.16 C117.896,90.824 117.896,90.36 117.896,90.04 L117.864,90.04 C117.368,90.809 116.536,91.353 115.4,91.353 C113.88,91.353 112.616,90.584 112.616,89.128 C112.616,86.648 115.496,86.504 117.335,86.504 L117.816,86.504 L117.816,86.28 C117.816,85.192 117.128,84.632 115.959,84.632 C115.16,84.632 114.328,84.904 113.736,85.448 L112.952,84.632 L112.952,84.632 Z" id="Fill-30" fill="#ffffff"></path>
            <path d="M121.352,85.448 C121.352,84.76 121.288,84.168 121.288,83.672 L122.472,83.672 C122.472,84.072 122.504,84.488 122.504,84.904 L122.536,84.904 C122.872,84.168 123.8,83.48 125.032,83.48 C127,83.48 127.88,84.729 127.88,86.536 L127.88,91.16 L126.632,91.16 L126.632,86.664 C126.632,85.416 126.088,84.632 124.92,84.632 C123.304,84.632 122.6,85.8 122.6,87.512 L122.6,91.16 L121.352,91.16 L121.352,85.448" id="Fill-31" fill="#ffffff"></path>
            <path d="M135.576,85.544 C135.048,84.904 134.44,84.632 133.688,84.632 C132.008,84.632 131.16,85.88 131.16,87.416 C131.16,88.952 132.168,90.2 133.688,90.2 C134.504,90.2 135.128,89.912 135.592,89.272 L136.52,90.152 C135.8,90.984 134.776,91.353 133.688,91.353 C131.368,91.353 129.816,89.72 129.816,87.416 C129.816,85.145 131.384,83.48 133.688,83.48 C134.792,83.48 135.816,83.849 136.568,84.664 L135.576,85.544" id="Fill-32" fill="#ffffff"></path>
            <path d="M138.072,91.16 L139.32,91.16 L139.32,83.672 L138.072,83.672 L138.072,91.16 Z M138.696,79.832 C139.208,79.832 139.608,80.248 139.608,80.744 C139.608,81.272 139.224,81.656 138.696,81.656 C138.168,81.656 137.784,81.272 137.784,80.744 C137.784,80.248 138.184,79.832 138.696,79.832 L138.696,79.832 Z" id="Fill-33" fill="#ffffff"></path>
            <g id="Group-37" transform="translate(141.000000, 83.000000)">
                <mask id="mask-4" fill="white">
                    <use xlink:href="#path-3"></use>
                </mask>
                <g id="Clip-35"></g>
                <path d="M0.8,2.448 C0.8,1.76 0.736,1.168 0.736,0.672 L1.92,0.672 C1.92,1.072 1.952,1.488 1.952,1.904 L1.984,1.904 C2.32,1.168 3.248,0.48 4.479,0.48 C6.448,0.48 7.328,1.729 7.328,3.536 L7.328,8.16 L6.08,8.16 L6.08,3.664 C6.08,2.416 5.536,1.632 4.368,1.632 C2.751,1.632 2.048,2.8 2.048,4.512 L2.048,8.16 L0.8,8.16 L0.8,2.448" id="Fill-34" fill="#ffffff" mask="url(#mask-4)"></path>
                <path d="M13.248,7.104 C14.959,7.104 15.919,5.824 15.919,4.384 C15.919,2.769 14.832,1.632 13.248,1.632 C11.68,1.632 10.608,2.849 10.608,4.416 C10.608,5.937 11.792,7.104 13.248,7.104 Z M17.167,7.824 C17.167,10.528 15.711,12 13.087,12 C11.632,12 10.464,11.616 9.408,10.576 L10.304,9.552 C11.088,10.4 11.936,10.848 13.087,10.848 C15.328,10.848 15.919,9.408 15.919,7.824 L15.919,6.864 L15.888,6.864 C15.295,7.824 14.24,8.256 13.248,8.256 C10.896,8.256 9.264,6.624 9.264,4.416 C9.264,1.968 10.864,0.48 13.248,0.48 C14.256,0.48 15.392,0.96 15.888,1.952 L15.919,1.952 L15.919,0.672 L17.167,0.672 L17.167,7.824 L17.167,7.824 Z" id="Fill-36" fill="#ffffff" mask="url(#mask-4)"></path>
            </g>
            <polyline id="Fill-38" fill="#ffffff" points="164.92 79.064 166.168 79.064 166.168 86.968 169.576 83.672 171.352 83.672 167.736 87.08 171.72 91.16 169.88 91.16 166.168 87.225 166.168 91.16 164.92 91.16 164.92 79.064"></polyline>
            <path d="M172.92,85.448 C172.92,84.76 172.855,84.168 172.855,83.672 L174.04,83.672 C174.04,84.072 174.072,84.488 174.072,84.904 L174.104,84.904 C174.439,84.168 175.367,83.48 176.6,83.48 C178.568,83.48 179.447,84.729 179.447,86.536 L179.447,91.16 L178.199,91.16 L178.199,86.664 C178.199,85.416 177.656,84.632 176.488,84.632 C174.871,84.632 174.168,85.8 174.168,87.512 L174.168,91.16 L172.92,91.16 L172.92,85.448" id="Fill-39" fill="#ffffff"></path>
            <path d="M185.383,90.2 C186.999,90.2 188.039,88.984 188.039,87.416 C188.039,85.849 186.999,84.632 185.383,84.632 C183.768,84.632 182.728,85.849 182.728,87.416 C182.728,88.984 183.768,90.2 185.383,90.2 Z M185.383,83.48 C187.688,83.48 189.383,85.08 189.383,87.416 C189.383,89.752 187.688,91.353 185.383,91.353 C183.079,91.353 181.383,89.752 181.383,87.416 C181.383,85.08 183.079,83.48 185.383,83.48 L185.383,83.48 Z" id="Fill-40" fill="#ffffff"></path>
            <polyline id="Fill-41" fill="#ffffff" points="199.352 91.16 198.119 91.16 195.991 85.4 195.959 85.4 194.071 91.16 192.791 91.16 190.359 83.672 191.735 83.672 193.447 89.433 193.479 89.433 195.415 83.672 196.727 83.672 198.695 89.433 198.727 89.433 200.424 83.672 201.768 83.672 199.352 91.16"></polyline>
            <polygon id="Fill-42" fill="#ffffff" points="203.287 91.16 204.535 91.16 204.535 79.064 203.287 79.064"></polygon>
            <path d="M212.631,86.744 C212.584,85.48 211.752,84.632 210.375,84.632 C209,84.632 208.088,85.48 207.928,86.744 L212.631,86.744 Z M213.703,89.8 C212.824,90.937 211.768,91.353 210.375,91.353 C208.023,91.353 206.584,89.592 206.584,87.416 C206.584,85.097 208.215,83.48 210.424,83.48 C212.535,83.48 213.975,84.92 213.975,87.4 L213.975,87.8 L207.928,87.8 C208.023,89.096 209.016,90.2 210.375,90.2 C211.447,90.2 212.168,89.816 212.76,89.064 L213.703,89.8 L213.703,89.8 Z" id="Fill-43" fill="#ffffff"></path>
            <g id="Group-47" transform="translate(215.000000, 79.000000)">
                <mask id="mask-6" fill="white">
                    <use xlink:href="#path-5"></use>
                </mask>
                <g id="Clip-45"></g>
                <path d="M4.479,5.632 C2.863,5.632 1.822,6.849 1.822,8.416 C1.822,9.984 2.863,11.2 4.479,11.2 C6.096,11.2 7.135,9.984 7.135,8.416 C7.135,6.849 6.096,5.632 4.479,5.632 Z M7.135,10.832 L7.104,10.832 C6.639,11.68 5.566,12.353 4.223,12.353 C2.127,12.353 0.479,10.656 0.479,8.416 C0.479,6.145 2.063,4.48 4.414,4.48 C5.504,4.48 6.414,4.96 7.104,5.76 L7.135,5.76 L7.135,0.064 L8.383,0.064 L8.383,12.16 L7.135,12.16 L7.135,10.832 L7.135,10.832 Z" id="Fill-44" fill="#ffffff" mask="url(#mask-6)"></path>
                <path d="M14.24,11.104 C15.951,11.104 16.912,9.824 16.912,8.384 C16.912,6.769 15.824,5.632 14.24,5.632 C12.672,5.632 11.6,6.849 11.6,8.416 C11.6,9.937 12.783,11.104 14.24,11.104 Z M18.16,11.824 C18.16,14.528 16.703,16 14.08,16 C12.623,16 11.455,15.616 10.398,14.576 L11.295,13.552 C12.08,14.4 12.928,14.848 14.08,14.848 C16.318,14.848 16.912,13.408 16.912,11.824 L16.912,10.864 L16.879,10.864 C16.287,11.824 15.23,12.256 14.24,12.256 C11.887,12.256 10.256,10.624 10.256,8.416 C10.256,5.968 11.855,4.48 14.24,4.48 C15.248,4.48 16.383,4.96 16.879,5.952 L16.912,5.952 L16.912,4.672 L18.16,4.672 L18.16,11.824 L18.16,11.824 Z" id="Fill-46" fill="#ffffff" mask="url(#mask-6)"></path>
            </g>
            <path d="M241.078,86.744 C241.031,85.48 240.199,84.632 238.822,84.632 C237.447,84.632 236.535,85.48 236.375,86.744 L241.078,86.744 Z M242.15,89.8 C241.271,90.937 240.215,91.353 238.822,91.353 C236.471,91.353 235.031,89.592 235.031,87.416 C235.031,85.097 236.662,83.48 238.871,83.48 C240.982,83.48 242.422,84.92 242.422,87.4 L242.422,87.8 L236.375,87.8 C236.471,89.096 237.463,90.2 238.822,90.2 C239.895,90.2 240.615,89.816 241.207,89.064 L242.15,89.8 L242.15,89.8 Z" id="Fill-48" fill="#ffffff"></path>
            <path d="M252.262,84.2 C253.111,83.736 254.15,83.225 254.15,82.104 C254.15,81.272 253.494,80.776 252.711,80.776 C251.814,80.776 251.078,81.368 251.078,82.296 C251.078,82.904 251.479,83.384 251.863,83.784 L252.262,84.2 Z M251.926,85.656 C250.967,86.185 249.926,86.856 249.926,88.072 C249.926,89.288 250.951,90.2 252.135,90.2 C253.303,90.2 254.039,89.464 254.758,88.632 L251.926,85.656 Z M255.574,89.528 C254.662,90.68 253.686,91.353 252.182,91.353 C250.262,91.353 248.582,90.152 248.582,88.12 C248.582,86.52 249.734,85.464 251.094,84.84 C250.359,84.088 249.734,83.305 249.734,82.216 C249.734,80.536 251.094,79.624 252.662,79.624 C254.199,79.624 255.494,80.473 255.494,82.137 C255.494,83.561 254.23,84.424 253.094,85.017 L255.494,87.561 L257.014,85.017 L258.535,85.017 L256.359,88.504 L258.951,91.16 L257.111,91.16 L255.574,89.528 L255.574,89.528 Z" id="Fill-49" fill="#ffffff"></path>
            <path d="M268.902,84.729 L266.695,84.729 L266.695,88.473 C266.695,89.433 266.711,90.2 267.814,90.2 C268.182,90.2 268.582,90.12 268.918,89.944 L268.967,91.08 C268.535,91.272 267.975,91.353 267.51,91.353 C265.734,91.353 265.447,90.393 265.447,88.84 L265.447,84.729 L263.814,84.729 L263.814,83.672 L265.447,83.672 L265.447,81.544 L266.695,81.544 L266.695,83.672 L268.902,83.672 L268.902,84.729" id="Fill-50" fill="#ffffff"></path>
            <path d="M270.438,79.064 L271.686,79.064 L271.686,84.712 L271.719,84.712 C272.055,84.12 272.951,83.48 274.119,83.48 C276.086,83.48 276.967,84.729 276.967,86.536 L276.967,91.16 L275.719,91.16 L275.719,86.664 C275.719,85.416 275.174,84.632 274.006,84.632 C272.391,84.632 271.686,85.8 271.686,87.512 L271.686,91.16 L270.438,91.16 L270.438,79.064" id="Fill-51" fill="#ffffff"></path>
            <path d="M284.951,86.744 C284.902,85.48 284.07,84.632 282.695,84.632 C281.318,84.632 280.406,85.48 280.246,86.744 L284.951,86.744 Z M286.023,89.8 C285.143,90.937 284.086,91.353 282.695,91.353 C280.344,91.353 278.902,89.592 278.902,87.416 C278.902,85.097 280.535,83.48 282.742,83.48 C284.855,83.48 286.295,84.92 286.295,87.4 L286.295,87.8 L280.246,87.8 C280.344,89.096 281.334,90.2 282.695,90.2 C283.768,90.2 284.486,89.816 285.078,89.064 L286.023,89.8 L286.023,89.8 Z" id="Fill-52" fill="#ffffff"></path>
            <path d="M296.199,87.561 C294.615,87.561 293.59,87.992 293.59,89 C293.59,89.944 294.295,90.296 295.238,90.296 C296.678,90.296 297.414,89.256 297.447,88.04 L297.447,87.561 L296.199,87.561 Z M292.582,84.632 C293.352,83.849 294.471,83.48 295.559,83.48 C297.766,83.48 298.695,84.536 298.695,86.648 L298.695,89.864 C298.695,90.296 298.742,90.776 298.807,91.16 L297.607,91.16 C297.527,90.824 297.527,90.36 297.527,90.04 L297.494,90.04 C296.998,90.809 296.166,91.353 295.031,91.353 C293.51,91.353 292.246,90.584 292.246,89.128 C292.246,86.648 295.127,86.504 296.967,86.504 L297.447,86.504 L297.447,86.28 C297.447,85.192 296.758,84.632 295.59,84.632 C294.791,84.632 293.959,84.904 293.367,85.448 L292.582,84.632 L292.582,84.632 Z" id="Fill-53" fill="#ffffff"></path>
            <path d="M300.982,85.448 C300.982,84.76 300.918,84.168 300.918,83.672 L302.102,83.672 C302.102,84.072 302.135,84.488 302.135,84.904 L302.166,84.904 C302.502,84.168 303.43,83.48 304.662,83.48 C304.822,83.48 304.998,83.496 305.174,83.561 L305.094,84.824 C304.887,84.76 304.646,84.729 304.422,84.729 C302.902,84.729 302.23,85.8 302.23,87.512 L302.23,91.16 L300.982,91.16 L300.982,85.448" id="Fill-54" fill="#ffffff"></path>
            <path d="M310.711,84.729 L308.502,84.729 L308.502,88.473 C308.502,89.433 308.518,90.2 309.623,90.2 C309.99,90.2 310.391,90.12 310.727,89.944 L310.773,91.08 C310.342,91.272 309.781,91.353 309.318,91.353 C307.543,91.353 307.254,90.393 307.254,88.84 L307.254,84.729 L305.623,84.729 L305.623,83.672 L307.254,83.672 L307.254,81.544 L308.502,81.544 L308.502,83.672 L310.711,83.672 L310.711,84.729" id="Fill-55" fill="#ffffff"></path>
            <path d="M312.406,89.192 C312.902,89.8 313.445,90.2 314.326,90.2 C315.109,90.2 315.975,89.864 315.975,89.048 C315.975,88.248 315.174,88.04 314.373,87.864 C312.949,87.544 311.734,87.24 311.734,85.688 C311.734,84.232 313.143,83.48 314.533,83.48 C315.59,83.48 316.566,83.88 317.078,84.84 L316.037,85.528 C315.719,85 315.189,84.632 314.453,84.632 C313.766,84.632 312.982,84.968 312.982,85.672 C312.982,86.296 313.879,86.568 314.869,86.76 C316.197,87.017 317.318,87.496 317.318,89 C317.318,90.696 315.814,91.353 314.326,91.353 C313.063,91.353 312.15,91.017 311.414,89.96 L312.406,89.192" id="Fill-56" fill="#ffffff"></path>
        </g>
    </g>
</svg>